PathFileType	4	(X/Y/Z)	/home/mitkof6/dev/sinergia_osimrl/data/02761/02761_PRE/experimental_data/task.trc
DataRate	CameraRate	NumFrames	NumMarkers	Units	OrigDataRate	OrigDataStartFrame	OrigNumFrames
100.000000	100.000000	4	43	mm	100.000000	44	354
Frame#	Time	C7			CLAV			LANK			LASI			LBHD			LELB			LFHD			LFIN			LHEE			LKNE			LMED			LMET			LMIF			LPSI			LSHO			LTHI			LTIB			LTOE			LTTU			LWRA			LWRB			RANK			RASI			RBAK			RBHD			RELB			RFHD			RFIN			RHEE			RKNE			RMED			RMET			RMIF			RPSI			RSHO			RTHI			RTIB			RTOE			RTTU			RWRA			RWRB			STRN			T10			
		X1	Y1	Z1	X2	Y2	Z2	X3	Y3	Z3	X4	Y4	Z4	X5	Y5	Z5	X6	Y6	Z6	X7	Y7	Z7	X8	Y8	Z8	X9	Y9	Z9	X10	Y10	Z10	X11	Y11	Z11	X12	Y12	Z12	X13	Y13	Z13	X14	Y14	Z14	X15	Y15	Z15	X16	Y16	Z16	X17	Y17	Z17	X18	Y18	Z18	X19	Y19	Z19	X20	Y20	Z20	X21	Y21	Z21	X22	Y22	Z22	X23	Y23	Z23	X24	Y24	Z24	X25	Y25	Z25	X26	Y26	Z26	X27	Y27	Z27	X28	Y28	Z28	X29	Y29	Z29	X30	Y30	Z30	X31	Y31	Z31	X32	Y32	Z32	X33	Y33	Z33	X34	Y34	Z34	X35	Y35	Z35	X36	Y36	Z36	X37	Y37	Z37	X38	Y38	Z38	X39	Y39	Z39	X40	Y40	Z40	X41	Y41	Z41	X42	Y42	Z42	X43	Y43	Z43	

45	0.44	-1074.466186523438	1207.368408203125	-296.432434082031	-963.7133178710938	1138.614135742188	-284.367980957031	-1325.723876953125	96.70953369140632	-342.8084716796875	-1013.056030273438	813.8688354492189	-394.3531799316405	-1061.825927734375	1330.125244140625	-343.870910644531	-977.8654174804688	932.5155029296876	-507.7345581054685	-934.3770141601562	1364.312744140625	-335.8067932128903	-809.5237426757812	708.8191528320314	-572.6264648437499	-1376.916015625	96.60195159912116	-300.5163269042969	-1165.343872070312	442.4645385742189	-388.2579040527343	-1308.710205078125	104.8819732666016	-270.3048706054688	-1252.424682617188	34.25971603393563	-363.7580261230469	-1257.567138671875	86.9779357910157	-310.3523864746094	-1140.099487304688	866.5729980468751	-324.8099365234373	-1013.046997070312	1180.522094726562	-422.625549316406	-1131.921020507812	572.5668945312501	-453.6719360351561	-1263.150512695312	266.028778076172	-419.6175537109374	-1219.294311523438	45.83758163452156	-330.9917907714844	-1142.218139648438	358.4179382324219	-327.5932922363281	-870.855224609375	730.5201416015626	-551.9163818359374	-815.4148559570312	765.6658325195314	-532.3182983398436	-869.5523681640625	84.39624786376957	-185.5274353027343	-1002.901794433594	811.6834106445312	-193.8893890380858	-1113.241088867188	1081.615966796875	-216.9269866943357	-1087.78125	1304.879150390625	-238.7101898193357	-1139.171752929688	952.8585815429688	-110.0610656738279	-946.2075805664062	1346.900024414062	-212.9608001708981	-1005.019775390625	785.2435302734375	24.42177963256853	-913.1084594726562	75.37599182128912	-235.8238983154297	-895.2861938476562	465.3354492187501	-167.5832977294921	-841.661865234375	109.1142883300782	-252.3406219482422	-783.7920532226562	32.02697753906254	-171.4129638671875	-811.90673828125	101.3287200927735	-207.6583862304687	-1138.811767578125	862.6431884765625	-240.4676666259764	-1056.662353515625	1191.854125976562	-170.6689758300779	-969.0836791992188	573.4874877929688	-110.2989807128905	-892.36669921875	257.4707641601562	-126.3281707763671	-758.1478881835938	48.90103530883793	-200.6249237060547	-829.1834716796875	401.9221496582032	-212.9925842285155	-1055.716674804688	806.646728515625	-4.334371566772282	-1004.504516601562	819.8990478515625	-36.2198944091795	-927.8646850585938	1002.938049316406	-283.6012573242185	-1111.031616210938	962.9242553710939	-294.4984436035154	
46	0.45	-1064.657836914062	1205.13623046875	-295.4068298339841	-953.7389526367188	1136.440551757812	-283.4926147460935	-1324.329833984375	98.49899291992195	-343.2236633300781	-1002.753112792969	811.8677978515626	-394.036407470703	-1052.296142578125	1327.735717773438	-342.9691772460935	-967.9732666015625	930.2484130859376	-506.4377441406248	-924.8963623046875	1362.216796875	-335.1613464355466	-800.523193359375	706.7725219726564	-573.8059692382811	-1375.70068359375	99.34022521972663	-301.0675964355469	-1157.568969726562	441.4775390625001	-388.1011657714843	-1307.274169921875	106.4406433105469	-270.7020263671875	-1252.201416015625	34.54603195190438	-363.984130859375	-1257.269287109375	87.38504791259773	-310.5338745117188	-1129.554565429688	863.6091308593751	-323.0305175781248	-1003.501159667969	1178.37109375	-421.7487182617185	-1123.624267578125	571.4741821289064	-453.4400634765624	-1258.356811523438	266.7110595703126	-419.8467407226562	-1218.810668945312	45.96281814575202	-331.291259765625	-1136.360595703125	356.5535583496094	-327.4947204589843	-861.4920043945312	728.2232666015626	-551.1679687499999	-805.6053466796875	763.8023071289064	-533.8601074218749	-854.7105712890625	80.86659240722661	-190.5899047851562	-991.3687133789062	809.2828369140625	-193.3570251464842	-1103.2900390625	1079.06884765625	-216.238342285156	-1077.968139648438	1302.52294921875	-237.7263336181638	-1129.1494140625	949.7767333984375	-110.7717056274412	-936.4784545898438	1344.900756835938	-212.2714843749997	-995.9073486328125	780.7648315429688	23.26926803588885	-898.2742309570312	70.63301086425787	-240.7244567871093	-885.4356079101562	460.8484191894532	-169.867706298828	-827.2788696289062	105.6553649902344	-257.4227600097656	-768.267333984375	31.13124275207523	-174.7801666259766	-797.1168212890625	98.68516540527348	-212.7812347412109	-1127.801147460938	859.3963623046875	-238.9732208251951	-1046.826538085938	1189.494873046875	-169.6896667480466	-958.5656127929688	568.6087646484375	-111.2700347900389	-879.9964599609375	252.5254974365235	-130.1539306640624	-742.6481323242188	47.49969482421879	-204.5353240966797	-819.679443359375	398.2090454101563	-216.2730712890624	-1045.7587890625	802.5042114257812	-5.715599536895573	-995.0214233398438	816.5731201171875	-36.81350708007794	-917.8489379882812	1000.833984375	-283.1594238281248	-1100.75048828125	960.3595581054689	-293.2225341796873	
47	0.46	-1054.802490234375	1202.879516601562	-294.3078002929685	-943.6527099609375	1134.3388671875	-282.5194091796873	-1322.671142578125	100.5177001953126	-343.8005981445312	-992.095703125	809.7989501953126	-393.6710205078123	-1042.695434570312	1325.355224609375	-342.0247802734372	-958.096435546875	927.9735717773439	-505.1198120117185	-915.3416748046875	1360.099975585938	-334.4735717773435	-791.60498046875	704.6463623046876	-574.7453613281249	-1374.177490234375	102.3913574218751	-301.8109130859375	-1149.119750976562	440.3258056640626	-387.9964294433593	-1305.5966796875	108.2114791870118	-271.2510375976562	-1251.900756835938	34.90473937988289	-364.2841796875	-1256.957641601562	87.91468811035163	-310.9720764160156	-1118.62158203125	860.6873779296876	-321.2552185058592	-993.8798828125	1176.212158203125	-420.801086425781	-1114.926513671875	570.3410034179689	-453.1275024414061	-1252.97998046875	267.4117431640626	-420.1839599609374	-1218.249389648438	46.10151290893562	-331.6328735351562	-1129.865966796875	354.4851379394532	-327.4594726562499	-852.244873046875	725.8783569335939	-550.4645385742186	-796.0147094726562	761.6507568359376	-535.0125122070311	-842.8177490234375	77.48805236816411	-196.3460998535156	-979.5645141601562	806.8458862304688	-192.7969970703123	-1093.194091796875	1076.450317382812	-215.4762725830076	-1068.095581054688	1300.193481445312	-236.6980285644528	-1118.945190429688	946.7376708984375	-111.4391021728513	-926.6812133789062	1342.894409179688	-211.5402832031247	-986.382568359375	776.2965087890625	21.85680007934588	-885.9696044921875	65.92877960205084	-246.537612915039	-875.5162963867188	456.3544921875001	-172.1118164062499	-815.2525024414062	102.0222854614258	-263.0726623535156	-755.9573974609375	30.56182479858402	-177.9173736572266	-784.994873046875	95.94325256347661	-218.2712097167968	-1116.431518554688	856.256103515625	-237.4402160644529	-1036.941040039062	1187.16796875	-168.6577911376951	-947.585205078125	564.0877075195312	-112.2248916625975	-869.1187744140625	247.4781646728516	-134.4158325195312	-730.097412109375	46.27368164062505	-208.0446624755859	-810.3569946289062	394.2116088867188	-219.4120635986327	-1035.492553710938	798.3486328125	-7.260285854339422	-985.3197631835938	813.1444091796875	-37.70656967163068	-907.6039428710938	998.8414306640626	-282.6210632324216	-1090.10498046875	957.6957397460939	-291.9032287597654	
48	0.47	-1044.897705078125	1200.623291015625	-293.1332397460935	-933.4492797851562	1132.348754882812	-281.4426269531248	-1320.704223632812	102.7997207641602	-344.5198364257812	-981.0537109375	807.6808471679689	-393.2369995117186	-1033.023681640625	1323.011474609375	-341.0386047363278	-948.2607421875	925.7260742187501	-503.7848815917966	-905.7083740234375	1357.97998046875	-333.7461242675778	-782.7798461914062	702.4724121093751	-575.4459838867186	-1372.301513671875	105.819190979004	-302.7024536132812	-1139.976318359375	439.0068664550782	-387.9309082031249	-1303.624145507812	110.238868713379	-271.9388122558594	-1251.507202148438	35.33639144897469	-364.646484375	-1256.460571289062	88.62692260742195	-311.6477355957031	-1107.2880859375	857.8752441406251	-319.5388183593748	-984.1671142578125	1174.085083007812	-419.7747497558591	-1105.730346679688	569.1488647460939	-452.7079467773436	-1246.99560546875	268.1407775878907	-420.6083068847656	-1217.619506835938	46.23003387451179	-331.9875183105469	-1122.617553710938	352.2441711425782	-327.5119018554687	-843.078125	723.4974975585939	-549.7975463867186	-786.5927124023438	759.2687377929689	-535.7537841796874	-834.0042724609375	74.22962951660161	-202.6482849121093	-967.4940795898438	804.4144897460938	-192.2100982666014	-1082.94189453125	1073.790161132812	-214.6284027099607	-1058.166015625	1297.923217773438	-235.6259613037107	-1108.539184570312	943.7778930664062	-112.0372543334959	-916.8092041015625	1340.902709960938	-210.77131652832	-976.4227294921875	771.8624877929688	20.19028663635271	-876.2871704101562	61.25214385986334	-253.1285705566406	-865.5387573242188	451.9216918945313	-174.3352508544921	-805.6890869140625	98.20118713378912	-269.1361999511719	-746.9783325195312	30.25430870056156	-180.8035278320312	-775.6961059570312	93.09429931640629	-223.9803771972656	-1104.706176757812	853.3041381835938	-235.8869323730467	-1027	1184.900390625	-167.5678863525388	-936.1218872070312	560.0413818359375	-113.2048873901366	-859.8793334960938	242.3991851806641	-139.0660858154296	-720.5979614257812	45.26417541503911	-211.0809631347656	-801.203125	389.9856567382813	-222.4033660888671	-1024.958374023438	794.2238159179688	-8.946657180785957	-975.3331298828125	809.6336669921875	-38.89001464843732	-897.1060791015625	997.0039672851564	-281.9645690917966	-1079.090087890625	954.9713745117189	-290.5647888183591	
